<?xml version="1.0" encoding="utf-8"?>
<!-- Generator: Adobe Illustrator 27.9.0, SVG Export Plug-In . SVG Version: 6.00 Build 0)  -->
<svg version="1.1" id="Layer_1" xmlns="http://www.w3.org/2000/svg" xmlns:xlink="http://www.w3.org/1999/xlink" x="0px" y="0px"
	 viewBox="0 0 1080 1080" style="enable-background:new 0 0 1080 1080;" xml:space="preserve">
<style type="text/css">
	.st0{fill:#74A4B5;}
</style>
<g>
	<g>
		<path class="st0" d="M503.29,766.5c2.74-2.74,5.76-4.83,9.08-6.28c3.32-1.45,6.93-2.17,10.83-2.17h73.53
			c4.52,0,8.19,3.67,8.19,8.19l0,0c0,4.52-3.67,8.19-8.19,8.19H523.2c-1.45,0-2.81,0.27-4.09,0.81c-1.28,0.54-2.39,1.29-3.34,2.23
			c-0.95,0.95-1.69,2.06-2.23,3.34c-0.54,1.28-0.81,2.64-0.81,4.09v32.04c0,1.35,0.29,2.65,0.89,3.9c0.59,1.26,1.37,2.37,2.34,3.34
			c0.97,0.97,2.08,1.75,3.34,2.34c1.26,0.59,2.56,0.89,3.9,0.89h73.53c4.52,0,8.19,3.67,8.19,8.19l0,0c0,4.52-3.67,8.19-8.19,8.19
			H523.2c-1.94,0-3.82-0.2-5.65-0.61c-1.83-0.4-3.58-0.98-5.27-1.73c-1.68-0.74-3.28-1.64-4.79-2.68c-1.51-1.04-2.91-2.19-4.2-3.43
			c-2.67-2.59-4.75-5.58-6.23-8.96c-1.48-3.38-2.22-7.03-2.22-10.95v-29.04c0-3.92,0.73-7.54,2.18-10.84
			C498.46,772.26,500.56,769.23,503.29,766.5z"/>
		<path class="st0" d="M730.15,800.95c1.96-2.37,3.42-5.01,4.38-7.93c0.96-2.92,1.44-5.92,1.44-9.01c0-2.17-0.25-4.31-0.73-6.43
			c-0.49-2.13-1.21-4.15-2.18-6.07c-0.96-1.92-2.16-3.7-3.61-5.34c-1.45-1.64-3.14-3.07-5.07-4.27c-1.93-1.21-4.09-2.15-6.48-2.83
			c-2.39-0.68-5.02-1.03-7.9-1.03h-74.74c-4.52,0-8.19,3.67-8.19,8.19l0,0c0,4.52,3.67,8.19,8.19,8.19h74.47
			c1.78,0,3.26,0.43,4.46,1.29c1.2,0.86,2.1,1.93,2.71,3.21c0.61,1.29,0.92,2.68,0.92,4.18c0,1.5-0.29,2.89-0.89,4.18
			c-0.59,1.28-1.49,2.36-2.68,3.21c-1.19,0.86-2.7,1.29-4.52,1.29h-74.47c-4.52,0-8.19,3.67-8.19,8.19l0,0
			c0,4.52,3.67,8.19,8.19,8.19h74.47c1.14,0,2.15,0.28,3.02,0.83s1.59,1.28,2.16,2.18c0.57,0.9,1,1.92,1.29,3.08
			c0.29,1.16,0.43,2.33,0.43,3.54c0,1.21-0.15,2.39-0.43,3.54c-0.29,1.16-0.71,2.18-1.29,3.08c-0.57,0.9-1.29,1.62-2.16,2.17
			c-0.87,0.55-1.87,0.83-3.02,0.83h-74.47c-4.52,0-8.19,3.67-8.19,8.19l0,0c0,4.52,3.67,8.19,8.19,8.19h74.74
			c2.92,0,5.59-0.34,8.01-1.01c2.42-0.68,4.59-1.6,6.52-2.79c1.93-1.18,3.61-2.59,5.04-4.23c1.43-1.63,2.62-3.4,3.57-5.3
			c0.95-1.9,1.66-3.9,2.13-6.02c0.47-2.11,0.7-4.24,0.7-6.39c-0.02-3.08-0.52-6.1-1.49-9.07
			C733.51,806.05,732.07,803.36,730.15,800.95z"/>
		<path class="st0" d="M450.43,758.04c-5.24,0-59.33,0.02-80.24,0.03c-4.52,0-8.19,3.67-8.19,8.19l0,0c0,4.53,3.67,8.19,8.19,8.19
			h79.98c1.14,0,2.15,0.28,3.02,0.83c0.87,0.55,1.59,1.28,2.16,2.18c0.57,0.9,1,1.92,1.29,3.08c0.29,1.16,0.43,2.33,0.43,3.54
			c0,1.21-0.15,2.39-0.43,3.54c-0.29,1.16-0.71,2.18-1.29,3.08c-0.57,0.9-1.29,1.62-2.16,2.17c-0.87,0.55-1.87,0.83-3.02,0.83
			h-12.66v-0.01l-53.12,0.01c-13.44,0-24.34,10.9-24.34,24.34v16.81c0,4.95,4.01,8.96,8.96,8.96l0,0c4.95,0,8.96-4.01,8.96-8.96
			v-15.03c0-5.38,4.36-9.74,9.74-9.74h15.21v0.01h47.53c20.12,0,25.97-15.96,25.97-25.73C476.43,774.06,470.04,758.04,450.43,758.04
			z"/>
	</g>
	<g>
		<path class="st0" d="M699.54,648.22c2.74-2.74,5.76-4.83,9.08-6.28c3.32-1.45,6.93-2.17,10.83-2.17h73.53
			c4.52,0,8.19,3.67,8.19,8.19l0,0c0,4.52-3.67,8.19-8.19,8.19h-73.53c-1.45,0-2.81,0.27-4.09,0.81c-1.28,0.54-2.39,1.29-3.34,2.23
			c-0.95,0.95-1.69,2.06-2.23,3.34c-0.54,1.28-0.81,2.64-0.81,4.09v32.04c0,1.35,0.29,2.65,0.89,3.9c0.59,1.26,1.37,2.37,2.34,3.34
			c0.97,0.97,2.08,1.75,3.34,2.34c1.26,0.59,2.56,0.89,3.9,0.89h73.53c4.52,0,8.19,3.67,8.19,8.19l0,0c0,4.52-3.67,8.19-8.19,8.19
			h-73.53c-1.94,0-3.82-0.2-5.65-0.61c-1.83-0.4-3.58-0.98-5.27-1.73c-1.68-0.74-3.28-1.64-4.79-2.68c-1.51-1.04-2.91-2.19-4.2-3.43
			c-2.67-2.59-4.75-5.58-6.23-8.96c-1.48-3.38-2.22-7.03-2.22-10.95v-29.04c0-3.92,0.73-7.54,2.18-10.84
			C694.71,653.98,696.81,650.95,699.54,648.22z"/>
		<path class="st0" d="M315.89,709.14h83.63c4.52,0,8.19,3.67,8.19,8.19l0,0c0,4.52-3.67,8.19-8.19,8.19H307.8
			c-1.47,0-2.81-0.23-4.01-0.7c-1.21-0.47-2.24-1.14-3.11-2.01c-0.87-0.87-1.54-1.9-2.01-3.11c-0.47-1.2-0.7-2.54-0.7-4.01v-66.97
			c0-4.95,4.01-8.96,8.96-8.96l0,0c4.95,0,8.96,4.01,8.96,8.96V709.14z"/>
		<path class="st0" d="M660.39,639.77L660.39,639.77c-4.95,0-8.96,4.01-8.96,8.96v59.01h-7.11c-2.21-0.05-5.17-1.7-6.32-2.95
			c-10.52-11.51-39.87-43.55-55.81-61.22c-1.29-1.43-5.18-4.02-10.47-3.8c-1.57,0.06-3.09,0.25-4.55,0.74
			c-1.46,0.49-2.75,1.21-3.86,2.17c-1.11,0.96-2.01,2.16-2.68,3.61c-0.68,1.45-1.01,3.16-1.01,5.12l0.03,65.16
			c0,4.95,4.01,8.96,8.96,8.96l0,0c4.95,0,8.96-4.01,8.96-8.96v-53.52l53.34,58.59c3.29,2.72,5.7,3.83,8.5,3.84v0.05h16.3v-0.14
			c0.52,0.05,1.04,0.14,1.56,0.14c1.57,0,3.09-0.25,4.55-0.74c1.46-0.49,2.75-1.21,3.86-2.17c1.11-0.96,2.01-2.16,2.68-3.61
			c0.68-1.45,1.01-3.16,1.01-5.12l-0.02-65.16C669.35,643.78,665.34,639.77,660.39,639.77z"/>
		<path class="st0" d="M513.03,663.92l0.08,0l-5.65-8.36l-6.84-10.28c-2.46-3.72-4.89-4.95-7.29-5.21c-0.74-0.18-1.51-0.3-2.37-0.3
			l-6.5,0l-6.5,0c-0.85,0-1.63,0.12-2.37,0.3c-2.4,0.26-4.83,1.49-7.29,5.21l-6.84,10.28l-5.65,8.36l0.08,0l-31.61,47.51
			c-4.01,6.03,0.31,14.09,7.55,14.09l0,0c3.05,0,5.89-1.53,7.57-4.08l38.24-57.99l0-0.02c0.15-0.23,0.31-0.46,0.38-0.57
			c1.84-2.78,4.14-4.3,6.42-4.3c2.28-0.01,4.58,1.52,6.42,4.3c0.07,0.11,0.23,0.34,0.38,0.57l0,0.02l38.24,57.99
			c1.68,2.55,4.52,4.08,7.57,4.08l0,0c7.24,0,11.56-8.07,7.55-14.09L513.03,663.92z"/>
		<path class="st0" d="M253.39,639.76c-5.24,0-59.33,0.02-80.24,0.03c-4.52,0-8.19,3.67-8.19,8.19l0,0c0,4.53,3.67,8.19,8.19,8.19
			h79.98c1.14,0,2.15,0.28,3.02,0.83c0.87,0.55,1.59,1.28,2.16,2.18c0.57,0.9,1,1.92,1.29,3.08c0.29,1.16,0.43,2.33,0.43,3.54
			c0,1.21-0.15,2.39-0.43,3.54c-0.29,1.16-0.71,2.18-1.29,3.08c-0.57,0.9-1.29,1.62-2.16,2.17c-0.87,0.55-1.87,0.83-3.02,0.83
			h-12.66v-0.01l-53.12,0.01c-13.44,0-24.34,10.9-24.34,24.34v16.81c0,4.95,4.01,8.96,8.96,8.96l0,0c4.95,0,8.96-4.01,8.96-8.96
			v-15.03c0-5.38,4.36-9.74,9.74-9.74h15.21v0.01h47.53c20.12,0,25.97-15.96,25.97-25.73C279.4,655.78,273,639.76,253.39,639.76z"/>
		<path class="st0" d="M914.15,707.73c-2.21-0.05-4.99-1.89-6.32-2.95c-3.37-2.69-20.62-16.09-33.74-26.65
			c11.05-8.64,20.63-16.08,22.57-17.63c1.32-1.06,4.1-2.9,6.32-2.95h9.95c4.91,0,8.9-3.98,8.9-8.9l0,0c0-4.91-3.98-8.9-8.9-8.9
			h-14.86v0.05c-2.81,0.01-5.22,1.12-8.5,3.84l-49.16,36.87v-31.82c0-4.94-4-8.94-8.94-8.94l0,0c-4.94,0-8.94,4-8.94,8.94v67.87
			c0,4.94,4,8.94,8.94,8.94l0,0c4.94,0,8.94-4,8.94-8.94V706.5v-1.66c4.43-3.65,11.12-8.97,18.37-14.68l41.97,31.48
			c3.29,2.72,5.7,3.83,8.5,3.84v0.05h14.86c4.91,0,8.9-3.98,8.9-8.9l0,0c0-4.91-3.98-8.9-8.9-8.9H914.15z"/>
	</g>
	<g>
		<path class="st0" d="M510.76,364.98c-5.5-1.59-11.26,1.6-12.85,7.1c-1.58,5.5,1.6,11.26,7.1,12.85c5.5,1.58,11.26-1.6,12.85-7.1
			C519.44,372.32,516.26,366.56,510.76,364.98z"/>
		<path class="st0" d="M640.13,464.18c0-5.72-4.66-10.38-10.38-10.38c-5.72,0-10.38,4.66-10.38,10.38c0,5.72,4.66,10.38,10.38,10.38
			C635.47,474.56,640.13,469.9,640.13,464.18z"/>
		<path class="st0" d="M420.18,356.99c-5.72,0-10.38,4.66-10.38,10.38c0,5.72,4.66,10.38,10.38,10.38c5.72,0,10.38-4.66,10.38-10.38
			C430.56,361.65,425.9,356.99,420.18,356.99z"/>
		<path class="st0" d="M569.12,387.9c-5.72,0-10.38,4.66-10.38,10.38c0,5.72,4.66,10.38,10.38,10.38c5.72,0,10.38-4.66,10.38-10.38
			C579.5,392.55,574.84,387.9,569.12,387.9z"/>
		<path class="st0" d="M690.37,405.03c-5.72,0-10.38,4.66-10.38,10.38c0,5.72,4.66,10.38,10.38,10.38c5.72,0,10.38-4.66,10.38-10.38
			C700.75,409.69,696.1,405.03,690.37,405.03z"/>
		<path class="st0" d="M645.92,235.62H452.96c-50.38,0-91.22,40.84-91.22,91.22V519.8c0,50.38,40.84,91.22,91.22,91.22h192.96
			c50.38,0,91.22-40.84,91.22-91.22V326.84C737.14,276.46,696.3,235.62,645.92,235.62z M461.22,586.75c0,4-3.5,7.25-7.51,7.25
			c-4,0-7.51-3.25-7.51-7.25v-30.44v-69.06l-20.75-35.81c-0.46,0.11-0.53,0.21-1,0.29c-1.43,0.25-2.84,0.41-4.33,0.41
			c-13.72,0-24.85-11.16-24.85-24.88c0-13.72,11.17-24.88,24.89-24.88c13.72,0,24.88,11.16,24.88,24.88
			c0,6.49-2.53,12.39-6.61,16.82l22.02,37.47l0.78,3.7V586.75z M461.22,309.39l-0.78,3.7l-22.25,37.47
			c4.09,4.43,6.73,10.33,6.73,16.82c0,13.72-11.1,24.87-24.81,24.87c-13.72,0-24.84-11.16-24.84-24.87
			c0-13.72,11.18-24.87,24.9-24.87c1.5,0,2.97,0.16,4.4,0.41c0.47,0.08,0.43,0.18,0.89,0.29l20.75-35.8v-16.75v-30.44
			c0-4,3.5-7.25,7.51-7.25c4,0,7.51,3.25,7.51,7.25V309.39z M531.18,381.66c-3.1,10.76-13.15,17.74-24.14,17.81l-0.07,0.27
			c0,0-0.86-0.27-2.15-0.66l-0.02,0.1l-11.21,27.32l13.05,23.91l12.03,22.16l0.75,3.48v110.71c0,4-3.5,7.25-7.51,7.25
			c-4,0-7.51-3.25-7.51-7.25V477.89l-25.73-47.47l-0.15-6.22l13.14-29.84c-7.15-5.85-11.36-16.43-8.45-26.53
			c3.8-13.18,18.08-20.68,31.26-16.88C527.65,354.75,534.98,368.48,531.18,381.66z M575.72,422.07v164.68c0,4-3.04,7.25-7.04,7.25
			s-7.04-3.25-7.04-7.25V422.07c-9.38-3.11-17.64-12.6-17.64-23.79c0-13.72,11.21-24.88,24.92-24.88
			c13.72,0,24.77,11.16,24.77,24.88C593.7,409.47,586.04,418.96,575.72,422.07z M604.66,464.18c0-9.76,5.67-18.19,13.86-22.27
			c0.8-0.39,2.25-0.75,2.25-1.06v-68.44l-38.7-19.63l-34.85-17.9l-4.35-6.46v-67.44c0-4,3.5-7.25,7.51-7.25s7.51,3.25,7.51,7.25
			v62.99l73.39,37.53l3.56,6.46v72.08c12.2,2.67,19.31,12.46,19.31,24.13c0,13.72-10.91,24.88-24.63,24.88
			C615.81,489.06,604.66,477.9,604.66,464.18z M696.79,439.21v42.11l-2.79,5.94l-47.45,33.28l-19.2,13.33v33.5v19.4
			c0,4-3.5,7.25-7.51,7.25s-7.51-3.25-7.51-7.25v-56.67l3.35-5.94l40.58-28.32l25.52-18.28v-38.33c0-0.28-1.17-0.62-2.05-1.01
			c-8.77-3.85-14.39-12.61-14.39-22.79c0-13.72,11.16-24.88,24.88-24.88c13.72,0,24.59,11.16,24.59,24.88
			C714.8,426.61,707.11,436.09,696.79,439.21z"/>
		<path class="st0" d="M420.18,416.89c-5.72,0-10.38,4.66-10.38,10.38c0,5.72,4.66,10.38,10.38,10.38c5.72,0,10.38-4.65,10.38-10.38
			C430.56,421.55,425.9,416.89,420.18,416.89z"/>
	</g>
</g>
</svg>
